<?xml version="1.0" encoding="UTF-8" standalone="no"?>
<svg width="880px" height="962px" viewBox="0 0 880 962" version="1.1" xmlns="http://www.w3.org/2000/svg" xmlns:xlink="http://www.w3.org/1999/xlink" xmlns:sketch="http://www.bohemiancoding.com/sketch/ns">
    <!-- Generator: Sketch 3.3.3 (12072) - http://www.bohemiancoding.com/sketch -->
    <title>brainbow-logo</title>
    <desc>Created with Sketch.</desc>
    <defs>
        <filter x="-50%" y="-50%" width="200%" height="200%" filterUnits="objectBoundingBox" id="filter-1">
            <feOffset dx="0" dy="2" in="SourceAlpha" result="shadowOffsetOuter1"></feOffset>
            <feGaussianBlur stdDeviation="12" in="shadowOffsetOuter1" result="shadowBlurOuter1"></feGaussianBlur>
            <feColorMatrix values="0 0 0 0 0   0 0 0 0 0   0 0 0 0 0  0 0 0 0.263352015 0" in="shadowBlurOuter1" type="matrix" result="shadowMatrixOuter1"></feColorMatrix>
            <feMerge>
                <feMergeNode in="shadowMatrixOuter1"></feMergeNode>
                <feMergeNode in="SourceGraphic"></feMergeNode>
            </feMerge>
        </filter>
        <path id="path-2" d="M315.52913,580.740256 C468.788148,580.740256 581.476264,419.421324 581.476264,208.724692 C581.476264,-1.97193979 333.973304,72.4140081 180.714285,72.4140081 C70.0332475,72.4140081 38.5901852,5.57918444 27.992948,28.641776 C17.3957108,51.7043676 28.1983581,212.227622 36.9070355,269.195609 C61.3036008,428.786227 162.270112,580.740256 315.52913,580.740256 Z"></path>
        <path id="path-4" d="M154.792969,175.746094 C32.5546875,208.875 0.10546875,210.410156 0.10546875,210.410156 C0.10546875,210.410156 56.7695312,252.074219 117.792969,260.242188 C178.816406,268.410156 196,253.757812 265,257 C334,260.242188 378,272 422,317 C466,362 531,489 560,509 C589,529 644.476563,576.601562 719.980469,568.707031 C752.726562,498.232422 757.417969,390.648438 752.726562,312.828125 C748.035156,235.007812 680.912109,85.9628906 663.216797,74.1503906 C615.335938,88.4101562 596,83 566.4375,67.7695312 C536.875,52.5390625 485.242188,0.328125 485.242188,0.328125 C485.242188,0.328125 277.03125,142.617188 154.792969,175.746094 Z"></path>
    </defs>
    <g id="Page-1" stroke="none" stroke-width="1" fill="none" fill-rule="evenodd" sketch:type="MSPage">
        <g id="brainbow-logo" sketch:type="MSArtboardGroup">
            <g id="Brainbow" sketch:type="MSLayerGroup" transform="translate(87.000000, 22.000000)">
                <path d="M76.309287,392.990923 C135.744644,396.899487 221.342014,371.964872 307.999992,328.999992 C426.999992,269.999992 558.586661,186.673373 566,132 C482,-23 336,-22 195,38 C54,98 -44,208 22.0000008,375.999992 C22.7216168,376.533988 23.4571883,377.05507 24.20652,377.563321 C24.2007813,377.579218 24.1950554,377.595153 24.1893423,377.611128 C15.6424681,401.50957 40.3945315,560.480472 54.0351571,616.472667 C92.2481249,773.329694 206.074095,915.905681 358.749916,902.548277 C511.425737,889.190874 609.625169,718.664393 591.261747,508.769525 C572.898326,298.874657 332.820352,394.548848 180.14453,407.906252 C133.640113,411.974861 100.141544,402.97089 76.309287,392.990923 Z" id="Shadow-mask" fill="white" filter="url(#filter-1)" sketch:type="MSShapeGroup"></path>
                <path d="M334.52913,904.740256 C487.788148,904.740256 600.476264,743.421324 600.476264,532.724692 C600.476264,322.02806 352.973304,396.414008 199.714285,396.414008 C89.0332475,396.414008 57.5901852,329.579184 46.992948,352.641776 C36.3957108,375.704368 47.1983581,536.227622 55.9070355,593.195609 C80.3036008,752.786227 181.270112,904.740256 334.52913,904.740256 Z" id="Face" stroke="#000000" stroke-width="11" fill="#FFFFFF" sketch:type="MSShapeGroup" transform="translate(321.537238, 626.270671) rotate(-5.000000) translate(-321.537238, -626.270671) "></path>
                <g id="Bow-drop-sh" transform="translate(19.000000, 324.000000)">
                    <mask id="mask-3" sketch:name="Mask" fill="white">
                        <use xlink:href="#path-2"></use>
                    </mask>
                    <use id="Mask" sketch:type="MSShapeGroup" transform="translate(302.537238, 302.270671) rotate(-5.000000) translate(-302.537238, -302.270671) " xlink:href="#path-2"></use>
                    <path d="M164.792969,40.7460938 C42.5546875,73.875 10.1054688,55.4101563 10.1054688,55.4101563 C10.1054688,55.4101563 66.7695312,97.0742188 127.792969,105.242188 C188.816406,113.410156 206,108.757812 275,112 C344,115.242187 386,137 430,182 C474,227 531,364 560,384 C589,404 654.476563,441.601562 729.980469,433.707031 C762.726562,363.232422 767.417969,255.648438 762.726562,177.828125 C758.035156,100.007812 690.912109,-49.0371094 673.216797,-60.8496094 C625.335938,-46.5898438 606,-52 576.4375,-67.2304688 C546.875,-82.4609375 495.242188,-134.671875 495.242188,-134.671875 C495.242188,-134.671875 287.03125,7.6171875 164.792969,40.7460938 Z" id="Red---mask" fill-opacity="0.100000001" fill="#000000" sketch:type="MSShapeGroup" mask="url(#mask-3)"></path>
                </g>
                <path d="M308,677 C308,677 298,683 304,694 C310,705 325,700 325,700 C325,700 337,714 355,711 C373.000001,708 379,693 379,693 C379,693 393,697 397,683 C401,669 386,667 386,667" id="Nose" stroke="#000000" stroke-width="8" stroke-linecap="round" sketch:type="MSShapeGroup"></path>
                <path d="M320,785 C320,785 351,786.99997 376,780 C401,773.00003 420,757 420,757" id="Mouth" stroke="#000000" stroke-width="8" stroke-linecap="round" sketch:type="MSShapeGroup"></path>
                <path d="M373,801 C373,801 381,801.5 388,799 C395,796.5 398,792 398,792" id="Chin" stroke="#000000" stroke-width="6" stroke-linecap="round" sketch:type="MSShapeGroup"></path>
                <path d="M210.317502,629.531045 C210.317502,629.531045 215.862839,634.547323 223.463928,633.70303 C231.065017,632.858736 234.073195,627.183273 234.073195,627.183273" id="Left-eye" stroke="#000000" stroke-width="6" stroke-linecap="round" sketch:type="MSShapeGroup"></path>
                <ellipse id="Left-eye" fill="#000000" sketch:type="MSShapeGroup" cx="220" cy="601" rx="18" ry="20"></ellipse>
                <path d="M441.88231,619.002925 C441.88231,619.002925 447.427647,624.019203 455.028736,623.174909 C462.629825,622.330615 465.638002,616.655152 465.638002,616.655152" id="Right-eye" stroke="#000000" stroke-width="6" stroke-linecap="round" sketch:type="MSShapeGroup"></path>
                <ellipse id="Right-eye" fill="#000000" sketch:type="MSShapeGroup" cx="452" cy="591" rx="18" ry="20"></ellipse>
                <g id="Bow" transform="translate(29.000000, 169.000000)">
                    <mask id="mask-5" sketch:name="Red - mask Copy" fill="white">
                        <use xlink:href="#path-4"></use>
                    </mask>
                    <use id="Red---mask-Copy" fill="#FF5353" sketch:type="MSShapeGroup" xlink:href="#path-4"></use>
                    <path d="M172.136719,278.013675 C172.136719,278.013675 216.09375,231.041015 298.029297,223.841796 C379.964844,216.642577 447.849609,257.505862 512.263672,366.132816 C576.677734,474.759769 632.466797,488.675798 657.806641,495.675784 C683.146484,502.675771 723.472656,505.94142 742.683594,492.730469 C761.894531,479.519518 799.863281,448.761719 799.863281,448.761719 L783.621094,390.136719 C783.621094,390.136719 766.914062,404.792971 746.621094,413.878911 C726.328125,422.96485 670.070312,432.271489 624.605469,401.818364 C579.140625,371.365239 499.244141,242.804693 454.263672,215.267579 C409.283203,187.730465 336.595703,171.191406 272.666016,180.65625 C208.736328,190.121094 118.078125,266.230468 118.078125,266.230468 L172.136719,278.013675 Z" id="Orange" fill="#FFAE5F" sketch:type="MSShapeGroup" mask="url(#mask-5)"></path>
                    <path d="M125.208984,274.974609 C125.208984,274.974609 180.644531,216.914062 242.425781,195.712891 C304.207031,174.511719 361.957031,185.34375 403.708984,198.320312 C445.460938,211.296875 496.917969,260.84668 542.311523,325.686523 C587.705078,390.526367 623.65625,422.078125 665.033203,431.333984 C706.410156,440.589844 770.818359,417.164062 770.818359,417.164062 L774.191406,327.339844 L690.855469,338.650391 L614.625,297.089844 L564.164062,243.851562 L451.955078,149.451172 L359.029297,122.460938 L228.091797,112.199219 L132.630859,207.792969 L89.1113281,259.726562 L125.208984,274.974609 Z" id="Yellow" fill="#FFED25" sketch:type="MSShapeGroup" mask="url(#mask-5)"></path>
                    <path d="M94.498016,265.688492 C127.544643,233.674881 171.035156,181.443459 229.412109,168.386658 C287.789063,155.329857 366.401947,126.853317 446.898346,172.386658 C527.394745,217.919998 606.728271,353.616455 674.416199,362.478119 C742.104126,371.339783 766.868103,349.8591 766.868103,349.8591 L761.205078,238.064453 L665.019531,249.958984 L561.541016,190.925781 L437.9375,86.9609375 L333.921875,45.3808594 L229.412109,57.4980469 L109.033203,179.361328 L59.3515625,254.269531 C59.3515625,254.269531 76.3172515,267.065854 94.498016,265.688492 Z" id="Green" fill="#4BDE79" sketch:type="MSShapeGroup" mask="url(#mask-5)"></path>
                    <path d="M72.2391256,256.263596 C72.2391256,256.263596 144.598356,162.494333 167.805036,146.507576 C191.011716,130.520819 275.945689,97.197273 360.446238,98.6519169 C444.946787,100.106561 533.239431,184.224872 553.636114,202.23651 C574.032796,220.248147 627.422236,273.484452 659.187095,282.321461 C690.951955,291.158471 710.247202,288.517717 723.90864,286.524994 C737.570078,284.532271 769.773992,263.768003 769.773992,263.768003 L737.855975,178.404302 L667.392846,189.796776 L563.637988,142.419447 L473.183994,67.7123095 L383.14597,14.6599713 L273.557399,20.413828 L158.433387,100.661314 L51.9906289,248.500761 L72.2391256,256.263596 Z" id="Blue" fill="#38AEF4" sketch:type="MSShapeGroup" mask="url(#mask-5)"></path>
                    <path d="M51.2013814,253.551075 C51.2013814,253.551075 127.723885,133.169252 156.628466,115.922259 C185.533046,98.6752666 215.397768,58.7734465 291.7422,57.0624966 C368.086633,55.3515467 421,46.2211608 508,121.11058 C595,196 624.074373,212.88326 681.911528,212.883262 C739.748684,212.883264 743.108404,186.626764 743.108404,186.626764 L708.265607,121.110585 L614.937482,130.832035 L511.636731,57.3476528 L414,-14.0000001 L246.32031,0.773437892 L123.344214,88.3438797 L46.0000002,186.62677 L22.0000002,241 L51.2013814,253.551075 Z" id="Purple" fill="#4E00DC" sketch:type="MSShapeGroup" mask="url(#mask-5)"></path>
                    <path d="M27.2265625,230.078125 C27.2265625,230.078125 107.550781,63.734375 155.035156,24.9960937 C202.519531,-13.7421875 272.222444,-9.84691482 348.832855,-3 C425.443266,3.84691482 454.589844,24.3476593 490.050781,54.9375 C525.511719,85.5273407 565.659119,129.245361 607.908264,137.977005 C650.15741,146.708649 686.69696,140.936893 706.739929,124.77565 C692.707405,103.909746 665.793823,59.5848541 665.793823,59.5848541 L620.843384,71.6173859 L558.89502,43.4296875 L450.707031,-47.375 L336.660156,-69.2617188 L168.34375,-21.1015625 L99.34375,43.4296875 L-9.07421875,222.691406 L27.2265625,230.078125 Z" id="Lilac" fill="#994CFF" sketch:type="MSShapeGroup" mask="url(#mask-5)"></path>
                    <path d="M287.371215,190.244069 C168.371215,249.244069 51.3712231,274.244069 1.37122461,237.244069 C-64.6287762,69.2440767 33.3712238,-40.7559233 174.371224,-100.755923 C315.371224,-160.755923 461.371224,-161.755923 545.371224,-6.75592326 C537.957885,47.9174498 406.371215,131.244069 287.371215,190.244069 Z" id="Forehead" fill-opacity="0.0900418931" fill="#000000" sketch:type="MSShapeGroup" mask="url(#mask-5)">
                        <g transform="translate(262.853168, 58.175373) rotate(5.000000) translate(-262.853168, -58.175373) "></g>
                    </path>
                </g>
                <path d="M307.999992,328.999992 C188.999992,387.999992 71.9999993,412.999992 22.0000008,375.999992 C-44,208 54,98 195,38 C336,-22 482,-23 566,132 C558.586661,186.673373 426.999992,269.999992 307.999992,328.999992 Z" id="Forehead-Copy" stroke="#000000" stroke-width="11" fill="#FFFFFF" sketch:type="MSShapeGroup"></path>
            </g>
        </g>
    </g>
</svg>